<svg xmlns="http://www.w3.org/2000/svg" width="760" height="420" viewBox="0 0 760 420">
<rect width="100%" height="100%" fill="white"/>
<text x="380.0" y="28.0" font-family="Arial, sans-serif" font-size="18" font-weight="700" text-anchor="middle" fill="#222">Evaluation Metrics</text>
<text x="20.0" y="210.0" font-family="Arial, sans-serif" font-size="12" font-weight="400" text-anchor="middle" fill="#222" transform="rotate(-90 20.0 210.0)">score</text>
<rect x="91.7" y="102.9" width="54.4" height="219.1" fill="#2f6f73"/>
<text x="118.9" y="96.9" font-family="Arial, sans-serif" font-size="11" font-weight="400" text-anchor="middle" fill="#222">1</text>
<text x="118.9" y="344.0" font-family="Arial, sans-serif" font-size="11" font-weight="400" text-anchor="end" fill="#222" transform="rotate(-28 118.9 344.0)">intent_accuracy</text>
<rect x="185.4" y="102.9" width="54.4" height="219.1" fill="#2f6f73"/>
<text x="212.6" y="96.9" font-family="Arial, sans-serif" font-size="11" font-weight="400" text-anchor="middle" fill="#222">1</text>
<text x="212.6" y="344.0" font-family="Arial, sans-serif" font-size="11" font-weight="400" text-anchor="end" fill="#222" transform="rotate(-28 212.6 344.0)">risk_accuracy</text>
<rect x="279.1" y="102.9" width="54.4" height="219.1" fill="#2f6f73"/>
<text x="306.3" y="96.9" font-family="Arial, sans-serif" font-size="11" font-weight="400" text-anchor="middle" fill="#222">1</text>
<text x="306.3" y="344.0" font-family="Arial, sans-serif" font-size="11" font-weight="400" text-anchor="end" fill="#222" transform="rotate(-28 306.3 344.0)">tool_accuracy</text>
<rect x="372.8" y="102.9" width="54.4" height="219.1" fill="#2f6f73"/>
<text x="400.0" y="96.9" font-family="Arial, sans-serif" font-size="11" font-weight="400" text-anchor="middle" fill="#222">1</text>
<text x="400.0" y="344.0" font-family="Arial, sans-serif" font-size="11" font-weight="400" text-anchor="end" fill="#222" transform="rotate(-28 400.0 344.0)">dangerous_block_rate</text>
<rect x="466.5" y="102.9" width="54.4" height="219.1" fill="#2f6f73"/>
<text x="493.7" y="96.9" font-family="Arial, sans-serif" font-size="11" font-weight="400" text-anchor="middle" fill="#222">1</text>
<text x="493.7" y="344.0" font-family="Arial, sans-serif" font-size="11" font-weight="400" text-anchor="end" fill="#222" transform="rotate(-28 493.7 344.0)">injection_block_rate</text>
<rect x="560.3" y="102.9" width="54.4" height="219.1" fill="#2f6f73"/>
<text x="587.4" y="96.9" font-family="Arial, sans-serif" font-size="11" font-weight="400" text-anchor="middle" fill="#222">1</text>
<text x="587.4" y="344.0" font-family="Arial, sans-serif" font-size="11" font-weight="400" text-anchor="end" fill="#222" transform="rotate(-28 587.4 344.0)">confirmation_accuracy</text>
<rect x="654.0" y="102.9" width="54.4" height="219.1" fill="#2f6f73"/>
<text x="681.1" y="96.9" font-family="Arial, sans-serif" font-size="11" font-weight="400" text-anchor="middle" fill="#222">1</text>
<text x="681.1" y="344.0" font-family="Arial, sans-serif" font-size="11" font-weight="400" text-anchor="end" fill="#222" transform="rotate(-28 681.1 344.0)">task_success_rate</text>
<line x1="72" y1="322.0" x2="728.0" y2="322.0" stroke="#333"/>
<line x1="72" y1="70" x2="72" y2="322.0" stroke="#333"/>
<line x1="68" y1="322.0" x2="728.0" y2="322.0" stroke="#e6e6e6"/>
<text x="64.0" y="326.0" font-family="Arial, sans-serif" font-size="10" font-weight="400" text-anchor="end" fill="#222">0</text>
<line x1="68" y1="259.0" x2="728.0" y2="259.0" stroke="#e6e6e6"/>
<text x="64.0" y="263.0" font-family="Arial, sans-serif" font-size="10" font-weight="400" text-anchor="end" fill="#222">0.29</text>
<line x1="68" y1="196.0" x2="728.0" y2="196.0" stroke="#e6e6e6"/>
<text x="64.0" y="200.0" font-family="Arial, sans-serif" font-size="10" font-weight="400" text-anchor="end" fill="#222">0.57</text>
<line x1="68" y1="133.0" x2="728.0" y2="133.0" stroke="#e6e6e6"/>
<text x="64.0" y="137.0" font-family="Arial, sans-serif" font-size="10" font-weight="400" text-anchor="end" fill="#222">0.86</text>
<line x1="68" y1="70.0" x2="728.0" y2="70.0" stroke="#e6e6e6"/>
<text x="64.0" y="74.0" font-family="Arial, sans-serif" font-size="10" font-weight="400" text-anchor="end" fill="#222">1.1</text>
</svg>