<svg xmlns="http://www.w3.org/2000/svg" width="760" height="420" viewBox="0 0 760 420">
<rect width="100%" height="100%" fill="white"/>
<text x="380.0" y="28.0" font-family="Arial, sans-serif" font-size="18" font-weight="700" text-anchor="middle" fill="#222">Task Success by Category</text>
<text x="20.0" y="210.0" font-family="Arial, sans-serif" font-size="12" font-weight="400" text-anchor="middle" fill="#222" transform="rotate(-90 20.0 210.0)">success rate</text>
<rect x="99.6" y="102.9" width="76.1" height="219.1" fill="#2f6f73"/>
<text x="137.6" y="96.9" font-family="Arial, sans-serif" font-size="11" font-weight="400" text-anchor="middle" fill="#222">1</text>
<text x="137.6" y="344.0" font-family="Arial, sans-serif" font-size="11" font-weight="400" text-anchor="end" fill="#222" transform="rotate(-28 137.6 344.0)">normal_query</text>
<rect x="230.8" y="102.9" width="76.1" height="219.1" fill="#2f6f73"/>
<text x="268.8" y="96.9" font-family="Arial, sans-serif" font-size="11" font-weight="400" text-anchor="middle" fill="#222">1</text>
<text x="268.8" y="344.0" font-family="Arial, sans-serif" font-size="11" font-weight="400" text-anchor="end" fill="#222" transform="rotate(-28 268.8 344.0)">diagnosis</text>
<rect x="362.0" y="102.9" width="76.1" height="219.1" fill="#2f6f73"/>
<text x="400.0" y="96.9" font-family="Arial, sans-serif" font-size="11" font-weight="400" text-anchor="middle" fill="#222">1</text>
<text x="400.0" y="344.0" font-family="Arial, sans-serif" font-size="11" font-weight="400" text-anchor="end" fill="#222" transform="rotate(-28 400.0 344.0)">sandbox_write</text>
<rect x="493.2" y="102.9" width="76.1" height="219.1" fill="#2f6f73"/>
<text x="531.2" y="96.9" font-family="Arial, sans-serif" font-size="11" font-weight="400" text-anchor="middle" fill="#222">1</text>
<text x="531.2" y="344.0" font-family="Arial, sans-serif" font-size="11" font-weight="400" text-anchor="end" fill="#222" transform="rotate(-28 531.2 344.0)">dangerous</text>
<rect x="624.4" y="102.9" width="76.1" height="219.1" fill="#2f6f73"/>
<text x="662.4" y="96.9" font-family="Arial, sans-serif" font-size="11" font-weight="400" text-anchor="middle" fill="#222">1</text>
<text x="662.4" y="344.0" font-family="Arial, sans-serif" font-size="11" font-weight="400" text-anchor="end" fill="#222" transform="rotate(-28 662.4 344.0)">injection</text>
<line x1="72" y1="322.0" x2="728.0" y2="322.0" stroke="#333"/>
<line x1="72" y1="70" x2="72" y2="322.0" stroke="#333"/>
<line x1="68" y1="322.0" x2="728.0" y2="322.0" stroke="#e6e6e6"/>
<text x="64.0" y="326.0" font-family="Arial, sans-serif" font-size="10" font-weight="400" text-anchor="end" fill="#222">0</text>
<line x1="68" y1="259.0" x2="728.0" y2="259.0" stroke="#e6e6e6"/>
<text x="64.0" y="263.0" font-family="Arial, sans-serif" font-size="10" font-weight="400" text-anchor="end" fill="#222">0.29</text>
<line x1="68" y1="196.0" x2="728.0" y2="196.0" stroke="#e6e6e6"/>
<text x="64.0" y="200.0" font-family="Arial, sans-serif" font-size="10" font-weight="400" text-anchor="end" fill="#222">0.57</text>
<line x1="68" y1="133.0" x2="728.0" y2="133.0" stroke="#e6e6e6"/>
<text x="64.0" y="137.0" font-family="Arial, sans-serif" font-size="10" font-weight="400" text-anchor="end" fill="#222">0.86</text>
<line x1="68" y1="70.0" x2="728.0" y2="70.0" stroke="#e6e6e6"/>
<text x="64.0" y="74.0" font-family="Arial, sans-serif" font-size="10" font-weight="400" text-anchor="end" fill="#222">1.1</text>
</svg>