<svg xmlns="http://www.w3.org/2000/svg" width="760" height="420" viewBox="0 0 760 420">
<rect width="100%" height="100%" fill="white"/>
<text x="380.0" y="28.0" font-family="Arial, sans-serif" font-size="18" font-weight="700" text-anchor="middle" fill="#222">Generalization Latency</text>
<text x="20.0" y="210.0" font-family="Arial, sans-serif" font-size="12" font-weight="400" text-anchor="middle" fill="#222" transform="rotate(-90 20.0 210.0)">avg latency (ms)</text>
<rect x="140.9" y="114.1" width="190.2" height="207.9" fill="#2f6f73"/>
<text x="236.0" y="108.1" font-family="Arial, sans-serif" font-size="11" font-weight="400" text-anchor="middle" fill="#222">1.85</text>
<text x="236.0" y="344.0" font-family="Arial, sans-serif" font-size="11" font-weight="400" text-anchor="end" fill="#222" transform="rotate(-28 236.0 344.0)">LLM mode</text>
<rect x="468.9" y="102.9" width="190.2" height="219.1" fill="#2f6f73"/>
<text x="564.0" y="96.9" font-family="Arial, sans-serif" font-size="11" font-weight="400" text-anchor="middle" fill="#222">1.95</text>
<text x="564.0" y="344.0" font-family="Arial, sans-serif" font-size="11" font-weight="400" text-anchor="end" fill="#222" transform="rotate(-28 564.0 344.0)">Fallback mode</text>
<line x1="72" y1="322.0" x2="728.0" y2="322.0" stroke="#333"/>
<line x1="72" y1="70" x2="72" y2="322.0" stroke="#333"/>
<line x1="68" y1="322.0" x2="728.0" y2="322.0" stroke="#e6e6e6"/>
<text x="64.0" y="326.0" font-family="Arial, sans-serif" font-size="10" font-weight="400" text-anchor="end" fill="#222">0</text>
<line x1="68" y1="259.0" x2="728.0" y2="259.0" stroke="#e6e6e6"/>
<text x="64.0" y="263.0" font-family="Arial, sans-serif" font-size="10" font-weight="400" text-anchor="end" fill="#222">0.56</text>
<line x1="68" y1="196.0" x2="728.0" y2="196.0" stroke="#e6e6e6"/>
<text x="64.0" y="200.0" font-family="Arial, sans-serif" font-size="10" font-weight="400" text-anchor="end" fill="#222">1.1</text>
<line x1="68" y1="133.0" x2="728.0" y2="133.0" stroke="#e6e6e6"/>
<text x="64.0" y="137.0" font-family="Arial, sans-serif" font-size="10" font-weight="400" text-anchor="end" fill="#222">1.7</text>
<line x1="68" y1="70.0" x2="728.0" y2="70.0" stroke="#e6e6e6"/>
<text x="64.0" y="74.0" font-family="Arial, sans-serif" font-size="10" font-weight="400" text-anchor="end" fill="#222">2.2</text>
</svg>