<svg xmlns="http://www.w3.org/2000/svg" width="820" height="460" viewBox="0 0 820 460">
<rect width="100%" height="100%" fill="white"/>
<text x="410.0" y="28.0" font-family="Arial, sans-serif" font-size="18" font-weight="700" text-anchor="middle" fill="#222">Stage Latency Breakdown</text>
<text x="20.0" y="230.0" font-family="Arial, sans-serif" font-size="12" font-weight="400" text-anchor="middle" fill="#222" transform="rotate(-90 20.0 230.0)">avg latency (ms)</text>
<rect x="100.2" y="111.6" width="26.0" height="226.4" fill="#2f6f73"/>
<rect x="130.2" y="338.0" width="26.0" height="0.0" fill="#b85750"/>
<rect x="160.2" y="337.9" width="26.0" height="0.1" fill="#5c6fa8"/>
<text x="143.2" y="368.0" font-family="Arial, sans-serif" font-size="11" font-weight="400" text-anchor="end" fill="#222" transform="rotate(-28 143.2 368.0)">Std LLM</text>
<rect x="242.6" y="338.0" width="26.0" height="0.0" fill="#2f6f73"/>
<rect x="272.6" y="338.0" width="26.0" height="0.0" fill="#b85750"/>
<rect x="302.6" y="337.9" width="26.0" height="0.1" fill="#5c6fa8"/>
<text x="285.6" y="368.0" font-family="Arial, sans-serif" font-size="11" font-weight="400" text-anchor="end" fill="#222" transform="rotate(-28 285.6 368.0)">Std FB</text>
<rect x="385.0" y="110.2" width="26.0" height="227.8" fill="#2f6f73"/>
<rect x="415.0" y="338.0" width="26.0" height="0.0" fill="#b85750"/>
<rect x="445.0" y="337.8" width="26.0" height="0.2" fill="#5c6fa8"/>
<text x="428.0" y="368.0" font-family="Arial, sans-serif" font-size="11" font-weight="400" text-anchor="end" fill="#222" transform="rotate(-28 428.0 368.0)">Gen LLM</text>
<rect x="527.4" y="338.0" width="26.0" height="0.0" fill="#2f6f73"/>
<rect x="557.4" y="338.0" width="26.0" height="0.0" fill="#b85750"/>
<rect x="587.4" y="337.8" width="26.0" height="0.2" fill="#5c6fa8"/>
<text x="570.4" y="368.0" font-family="Arial, sans-serif" font-size="11" font-weight="400" text-anchor="end" fill="#222" transform="rotate(-28 570.4 368.0)">Gen FB</text>
<rect x="669.8" y="338.0" width="26.0" height="0.0" fill="#2f6f73"/>
<rect x="699.8" y="338.0" width="26.0" height="0.0" fill="#b85750"/>
<rect x="729.8" y="338.0" width="26.0" height="0.0" fill="#5c6fa8"/>
<text x="712.8" y="368.0" font-family="Arial, sans-serif" font-size="11" font-weight="400" text-anchor="end" fill="#222" transform="rotate(-28 712.8 368.0)">Security</text>
<rect x="574" y="28" width="12" height="12" fill="#2f6f73"/>
<text x="592.0" y="38.0" font-family="Arial, sans-serif" font-size="11" font-weight="400" text-anchor="start" fill="#222">Planning</text>
<rect x="574" y="46" width="12" height="12" fill="#b85750"/>
<text x="592.0" y="56.0" font-family="Arial, sans-serif" font-size="11" font-weight="400" text-anchor="start" fill="#222">Safety</text>
<rect x="574" y="64" width="12" height="12" fill="#5c6fa8"/>
<text x="592.0" y="74.0" font-family="Arial, sans-serif" font-size="11" font-weight="400" text-anchor="start" fill="#222">Tool</text>
<line x1="72" y1="338.0" x2="784.0" y2="338.0" stroke="#333"/>
<line x1="72" y1="76" x2="72" y2="338.0" stroke="#333"/>
<line x1="68" y1="338.0" x2="784.0" y2="338.0" stroke="#e6e6e6"/>
<text x="64.0" y="342.0" font-family="Arial, sans-serif" font-size="10" font-weight="400" text-anchor="end" fill="#222">0</text>
<line x1="68" y1="272.5" x2="784.0" y2="272.5" stroke="#e6e6e6"/>
<text x="64.0" y="276.5" font-family="Arial, sans-serif" font-size="10" font-weight="400" text-anchor="end" fill="#222">8.5e+02</text>
<line x1="68" y1="207.0" x2="784.0" y2="207.0" stroke="#e6e6e6"/>
<text x="64.0" y="211.0" font-family="Arial, sans-serif" font-size="10" font-weight="400" text-anchor="end" fill="#222">1.7e+03</text>
<line x1="68" y1="141.5" x2="784.0" y2="141.5" stroke="#e6e6e6"/>
<text x="64.0" y="145.5" font-family="Arial, sans-serif" font-size="10" font-weight="400" text-anchor="end" fill="#222">2.5e+03</text>
<line x1="68" y1="76.0" x2="784.0" y2="76.0" stroke="#e6e6e6"/>
<text x="64.0" y="80.0" font-family="Arial, sans-serif" font-size="10" font-weight="400" text-anchor="end" fill="#222">3.4e+03</text>
</svg>